# xmcd
#
# Track frame offsets: 
#        150
#        37061
#        55686
#        73236
#        93725
#        112320
#        135754
#        141954
#        166919
#        195410
#        217525
#        235126
#
# Disc length: 3381 seconds
#
# Revision: 0
# Processed by: cddbd v1.5.2PL0 Copyright (c) Steve Scherf et al.
# Submitted via: ExactAudioCopy v0.95a4
#
DISCID=a80d330c
DTITLE=Lade - Kalna
DYEAR=2011
DGENRE=Chanson
TTITLE0=Kalna
TTITLE1=Ceska
TTITLE2=Sere pes Sona
TTITLE3=Je to asi tim
TTITLE4=Jaro
TTITLE5=Vlekle Lulula
TTITLE6=7
TTITLE7=Tvar studu
TTITLE8=Ze Sudet
TTITLE9=Lorrainne
TTITLE10=Ostrava
TTITLE11=V ulicích se sní
EXTD=
EXTT0=
EXTT1=
EXTT2=
EXTT3=
EXTT4=
EXTT5=
EXTT6=
EXTT7=
EXTT8=
EXTT9=
EXTT10=
EXTT11=
PLAYORDER=
